<?xml version="1.0" encoding="UTF-8" standalone="no"?>
<!DOCTYPE svg PUBLIC "-//W3C//DTD SVG 1.1//EN"
 "http://www.w3.org/Graphics/SVG/1.1/DTD/svg11.dtd">
<!-- Generated by graphviz version 2.40.1 (20161225.0304)
 -->
<!-- Title: G Pages: 1 -->
<svg width="199pt" height="464pt"
 viewBox="0.00 0.00 199.00 464.00" xmlns="http://www.w3.org/2000/svg" xmlns:xlink="http://www.w3.org/1999/xlink">
<g id="graph0" class="graph" transform="scale(1 1) rotate(0) translate(4 460)">
<title>G</title>
<polygon fill="#ffffff" stroke="transparent" points="-4,4 -4,-460 195,-460 195,4 -4,4"/>
<!-- A0 -->
<g id="node1" class="node">
<title>A0</title>
<polygon fill="none" stroke="#000000" points="48.5,-424 48.5,-456 143.5,-456 143.5,-424 48.5,-424"/>
<text text-anchor="start" x="67.385" y="-437" font-family="Helvetica,sans-Serif" font-size="10.00" fill="#000000">NamedThing</text>
<polygon fill="none" stroke="#000000" points="48.5,-368 48.5,-424 143.5,-424 143.5,-368 48.5,-368"/>
<text text-anchor="start" x="78.499" y="-405" font-family="Helvetica,sans-Serif" font-size="10.00" fill="#000000">id:string</text>
<text text-anchor="start" x="69.885" y="-393" font-family="Helvetica,sans-Serif" font-size="10.00" fill="#000000">name:string</text>
<text text-anchor="start" x="58.2175" y="-381" font-family="Helvetica,sans-Serif" font-size="10.00" fill="#000000">description:string</text>
</g>
<!-- A1 -->
<g id="node2" class="node">
<title>A1</title>
<polygon fill="none" stroke="#000000" points=".5,-286 .5,-318 191.5,-318 191.5,-286 .5,-286"/>
<text text-anchor="start" x="50.1625" y="-299" font-family="Helvetica,sans-Serif" font-size="10.00" fill="#000000">Chemical&#45;compound</text>
<polygon fill="none" stroke="#000000" points=".5,-86 .5,-286 191.5,-286 191.5,-86 .5,-86"/>
<text text-anchor="start" x="50.7135" y="-267" font-family="Helvetica,sans-Serif" font-size="10.00" fill="#000000">generic_name:string</text>
<text text-anchor="start" x="57.663" y="-255" font-family="Helvetica,sans-Serif" font-size="10.00" fill="#000000">wikidata_id:string</text>
<text text-anchor="start" x="70.444" y="-243" font-family="Helvetica,sans-Serif" font-size="10.00" fill="#000000">mass:string</text>
<text text-anchor="start" x="43.22" y="-231" font-family="Helvetica,sans-Serif" font-size="10.00" fill="#000000">chemical_formula:string</text>
<text text-anchor="start" x="68.225" y="-219" font-family="Helvetica,sans-Serif" font-size="10.00" fill="#000000">smiles:string</text>
<text text-anchor="start" x="40.4495" y="-207" font-family="Helvetica,sans-Serif" font-size="10.00" fill="#000000">smiles_is_isomeric:string</text>
<text text-anchor="start" x="72.11" y="-195" font-family="Helvetica,sans-Serif" font-size="10.00" fill="#000000">inchi:string</text>
<text text-anchor="start" x="61.551" y="-183" font-family="Helvetica,sans-Serif" font-size="10.00" fill="#000000">inchi_key:string</text>
<text text-anchor="start" x="52.6575" y="-171" font-family="Helvetica,sans-Serif" font-size="10.00" fill="#000000">pubchem_cid:string</text>
<text text-anchor="start" x="74.055" y="-159" font-family="Helvetica,sans-Serif" font-size="10.00" fill="#000000">role:string</text>
<text text-anchor="start" x="10.1505" y="-147" font-family="Helvetica,sans-Serif" font-size="10.00" fill="#000000">xenobiotic_metabolism_pathway:string</text>
<text text-anchor="start" x="60.4375" y="-135" font-family="Helvetica,sans-Serif" font-size="10.00" fill="#000000">is_part_of:string</text>
<text text-anchor="start" x="74.0605" y="-123" font-family="Helvetica,sans-Serif" font-size="10.00" fill="#000000">id(i):string</text>
<text text-anchor="start" x="65.4465" y="-111" font-family="Helvetica,sans-Serif" font-size="10.00" fill="#000000">name(i):string</text>
<text text-anchor="start" x="53.779" y="-99" font-family="Helvetica,sans-Serif" font-size="10.00" fill="#000000">description(i):string</text>
</g>
<!-- A0&#45;&gt;A1 -->
<g id="edge1" class="edge">
<title>A0&#45;&gt;A1</title>
<path fill="none" stroke="#000000" d="M95.5,-357.9356C95.5,-345.61 95.5,-332.0485 95.5,-318.2245"/>
<polygon fill="none" stroke="#000000" points="92.0001,-357.9771 95.5,-367.9771 99.0001,-357.9772 92.0001,-357.9771"/>
</g>
<!-- A2 -->
<g id="node3" class="node">
<title>A2</title>
<polygon fill="none" stroke="#000000" points="134.503,-36 56.497,-36 56.497,0 134.503,0 134.503,-36"/>
<text text-anchor="middle" x="95.5" y="-15" font-family="Helvetica,sans-Serif" font-size="10.00" fill="#000000">HasAliases</text>
</g>
<!-- A1&#45;&gt;A2 -->
<g id="edge2" class="edge">
<title>A1&#45;&gt;A2</title>
<path fill="none" stroke="#000000" stroke-dasharray="5,2" d="M88.9586,-85.992C89.2191,-71.3087 89.7238,-57.5026 90.4725,-46.2176"/>
<polygon fill="#000000" stroke="#000000" points="91.2652,-36.2241 94.9603,-46.5486 90.8698,-41.2084 90.4744,-46.1928 90.4744,-46.1928 90.4744,-46.1928 90.8698,-41.2084 85.9885,-45.8369 91.2652,-36.2241 91.2652,-36.2241"/>
<text text-anchor="middle" x="80.8618" y="-64.7043" font-family="Helvetica,sans-Serif" font-size="10.00" fill="#000000">uses</text>
</g>
<!-- A1&#45;&gt;A2 -->
<g id="edge3" class="edge">
<title>A1&#45;&gt;A2</title>
<path fill="none" stroke="#000000" stroke-dasharray="5,2" d="M102.0414,-85.992C101.7809,-71.3087 101.2762,-57.5026 100.5275,-46.2176"/>
<polygon fill="#000000" stroke="#000000" points="99.7348,-36.2241 105.0115,-45.8369 100.1302,-41.2084 100.5256,-46.1928 100.5256,-46.1928 100.5256,-46.1928 100.1302,-41.2084 96.0397,-46.5486 99.7348,-36.2241 99.7348,-36.2241"/>
<text text-anchor="middle" x="93.2367" y="-65.0344" font-family="Helvetica,sans-Serif" font-size="10.00" fill="#000000">uses</text>
</g>
</g>
</svg>
